<svg width="876" height="670" viewBox="0 0 876 670" fill="none" xmlns="http://www.w3.org/2000/svg">
<g clip-path="url(#clip0)">
<path d="M865.377 334.549C889.411 472.568 874.761 608.307 764.27 654.589C653.778 700.871 519.904 632.622 465.253 502.151C410.602 371.68 518.489 302.434 566.361 182.111C663.575 -62.2298 790.741 -94.0638 865.377 334.549Z" fill="#F2F2F2"/>
<path d="M823 524C825.209 524 827 522.209 827 520C827 517.791 825.209 516 823 516C820.791 516 819 517.791 819 520C819 522.209 820.791 524 823 524Z" fill="#FF6584"/>
<path d="M807 562C812.523 562 817 557.075 817 551C817 544.925 812.523 540 807 540C801.477 540 797 544.925 797 551C797 557.075 801.477 562 807 562Z" fill="#FF6584"/>
<path d="M806.783 595.032H804.783V669.443H806.783V595.032Z" fill="#02FA74"/>
<path d="M805.782 605.554C811.594 605.554 816.305 600.843 816.305 595.031C816.305 589.22 811.594 584.509 805.782 584.509C799.971 584.509 795.26 589.22 795.26 595.031C795.26 600.843 799.971 605.554 805.782 605.554Z" fill="#02FA74"/>
<path d="M805.782 640.893C805.782 640.893 804.279 608.561 773.462 612.319L805.782 640.893Z" fill="#02FA74"/>
<path d="M841.332 617.632C841.332 617.632 809.738 610.602 805.281 641.326L841.332 617.632Z" fill="#02FA74"/>
<path d="M637.563 100.031C637.563 100.031 656.466 124.251 654.103 141.382C651.74 158.514 693.092 117.753 693.092 117.753C693.092 117.753 678.914 88.2162 686.594 74.0385C694.274 59.8609 637.563 100.031 637.563 100.031Z" fill="#FFB9B9"/>
<path d="M703.725 590.342C703.725 590.342 728.536 617.516 724.401 623.423C720.266 629.331 647.605 651.778 639.335 650.597C631.065 649.416 626.93 643.508 629.883 641.736C632.837 639.964 651.74 629.921 651.74 629.921L667.69 611.608C667.69 611.608 679.505 605.11 679.505 601.566C679.505 598.021 703.725 590.342 703.725 590.342Z" fill="#927B7B"/>
<path d="M661.783 620.469C661.783 620.469 652.331 635.829 650.559 636.419C648.787 637.01 659.42 658.277 659.42 658.277L684.231 650.597L697.818 639.373L694.864 624.014L661.783 620.469Z" fill="#FFB9B9"/>
<path d="M634.252 348L623.127 396.648C623.127 396.648 584.747 481.373 611.446 496.131L669.851 606L701 592.335L648.714 479.733L672.632 350.186L634.252 348Z" fill="#3C3B43" fill-opacity="0.87"/>
<path d="M640.517 335.735H634.523C634.056 353.903 635.072 372.079 637.563 390.082C641.698 420.21 652.331 489.326 652.331 489.326C652.331 489.326 651.15 502.322 654.694 506.457C658.239 510.593 658.829 505.276 659.42 514.728C660.011 524.179 665.623 589.895 665.623 589.895C665.623 589.895 669.463 603.338 665.327 606.292C661.192 609.245 652.922 625.195 658.829 627.558C664.737 629.921 705.498 632.875 707.27 631.103C709.042 629.331 707.27 518.272 707.27 518.272C707.27 518.272 706.088 495.824 704.907 494.643C703.725 493.461 698.409 477.511 700.181 473.967C701.953 470.423 700.772 459.789 700.772 458.017C700.772 456.245 695.455 458.017 700.181 450.337C704.907 442.658 705.497 381.221 705.497 381.221C705.497 381.221 730.899 342.233 723.22 332.19L640.517 335.735Z" fill="#424148"/>
<path d="M654.103 108.892C675.636 108.892 693.092 91.4362 693.092 69.9034C693.092 48.3705 675.636 30.9148 654.103 30.9148C632.571 30.9148 615.115 48.3705 615.115 69.9034C615.115 91.4362 632.571 108.892 654.103 108.892Z" fill="#FFB9B9"/>
<path d="M693.092 111.255C693.092 111.255 669.463 117.162 660.011 131.34L651.74 133.112V141.382C651.74 141.382 636.381 190.413 639.926 211.68C643.47 232.946 639.926 274.298 634.018 285.522C628.111 296.746 626.339 299.109 629.293 303.835C632.246 308.561 636.381 324.511 633.428 331.599C630.474 338.688 633.428 345.777 660.602 347.549C687.775 349.322 726.173 349.322 726.173 339.87C726.173 330.418 723.81 303.835 726.173 296.746C728.536 289.657 729.718 284.931 728.536 278.433C727.355 271.935 730.899 199.275 730.899 199.275C730.899 199.275 731.49 126.614 693.092 111.255Z" fill="#32C1CA"/>
<path d="M637.563 293.792L605.072 342.233C605.072 342.233 570.81 373.542 583.215 387.719C595.621 401.897 628.111 346.368 628.111 346.368L663.555 306.198L637.563 293.792Z" fill="#FFB9B9"/>
<path d="M658.239 639.373C658.239 639.373 657.057 631.693 652.922 631.693C648.787 631.693 621.022 650.597 621.022 650.597C621.022 650.597 582.907 666.994 599 668C615 669 699.59 671.273 700.181 668.319C700.772 665.365 701.953 636.238 697.818 636.329C693.683 636.419 660.602 642.917 660.602 642.917L658.239 639.373Z" fill="#927B7B"/>
<path d="M656.877 49.7609C655.492 50.4436 653.965 50.7886 652.421 50.7677C650.827 50.8583 648.925 50.7597 648.078 49.4073C647.677 48.5173 647.491 47.5454 647.536 46.5703C647.368 45.3182 646.949 44.113 646.303 43.0275C645.657 41.942 644.797 40.9988 643.776 40.2547C642.756 39.5107 641.594 38.9813 640.363 38.6986C639.132 38.4159 637.856 38.3857 636.613 38.6099C636.782 40.5624 637.376 42.4544 638.354 44.1533C636.627 44.7392 634.788 44.9188 632.98 44.6782C631.173 44.4376 629.445 43.7832 627.931 42.766L627.331 50.7234C625.212 51.7361 622.497 51.9474 620.649 50.4979C618.801 49.0484 618.653 45.6465 620.744 44.5754C618.162 44.037 615.004 42.8802 614.814 40.2495C614.641 37.8491 617.189 36.0922 617.658 33.7317C618.041 31.8066 616.986 29.7141 617.732 27.8989C618.714 25.5142 622.276 24.9021 622.991 22.4245C623.355 21.1627 622.831 19.8131 622.956 18.5058C623.283 15.083 627.587 13.6619 631.019 13.8564C634.452 14.0509 638.199 14.9626 641.116 13.1412C642.53 12.2581 643.517 10.8446 644.76 9.73304C646.478 8.25984 648.614 7.3621 650.868 7.16606C653.123 6.97003 655.382 7.48556 657.328 8.64017C658.708 9.49873 659.913 10.6885 661.453 11.2104C664.604 12.2783 667.891 10.2577 671.186 9.79187C672.391 9.5855 673.627 9.65498 674.801 9.9951C675.975 10.3352 677.057 10.9371 677.965 11.7555C678.846 12.603 679.423 13.7179 679.606 14.9269C679.788 16.136 679.566 17.3715 678.975 18.4415C680.907 18.1151 682.955 17.7993 684.777 18.5233C686.598 19.2472 687.99 21.4283 687.148 23.198C686.834 23.662 686.587 24.1672 686.413 24.6992C686.242 25.7288 687.233 26.6091 688.234 26.9043C689.235 27.1995 690.322 27.1443 691.302 27.503C695.351 28.9849 694.379 35.4583 697.566 38.3626C698.66 39.1576 699.815 39.8641 701.021 40.4754C702.604 41.5726 703.762 43.1799 704.301 45.0284C704.841 46.877 704.729 48.8548 703.985 50.631C703.347 52.0456 702.276 53.3957 702.405 54.9425C702.586 57.112 704.911 58.3003 706.542 59.7419C708.03 61.1142 709.048 62.9208 709.45 64.9047C709.852 66.8886 709.618 68.9488 708.782 70.7923C707.283 73.9204 704.035 76.2917 703.706 79.745C703.562 81.2461 704.013 82.7447 703.988 84.2524C703.892 85.6461 703.484 87.0004 702.793 88.2144C702.102 89.4283 701.146 90.4708 699.996 91.264C697.682 92.8317 695.076 93.9162 692.333 94.4525C691.045 94.7607 689.508 95.2433 689.197 96.5303C688.827 98.0561 690.53 99.4446 690.353 101.005C690.243 101.682 689.868 102.289 689.312 102.691C687.007 104.493 683.36 102.948 681.951 100.384C680.542 97.8206 680.722 94.7137 680.941 91.7964L681.735 81.1881C681.982 77.8873 681.959 73.9676 679.268 72.0399C676.293 69.9088 671.961 71.6341 668.597 70.194C665.091 68.6935 663.834 64.302 663.975 60.4917C664.117 56.6814 665.209 52.8651 664.581 49.1036C663.803 44.4424 659.657 41.3096 655.47 44.3302C659.149 43.829 659.785 48.0515 656.877 49.7609Z" fill="#2F2E41"/>
<path opacity="0.1" d="M689.548 139.61C689.548 139.61 665.918 149.062 665.918 169.147C665.918 189.232 667.1 215.815 662.964 224.676C658.829 233.537 655.285 236.491 657.648 243.58C660.011 250.669 664.146 249.487 657.648 254.804C651.15 260.12 651.74 251.259 651.15 260.12C650.559 268.981 657.057 270.163 651.15 274.298C645.242 278.433 629.883 294.974 636.381 300.29C642.879 305.607 660.011 322.738 665.918 316.24C671.826 309.742 674.779 293.202 683.049 294.383C691.32 295.565 692.501 296.155 691.32 290.248C690.138 284.341 684.822 284.341 691.911 282.568C698.999 280.796 701.953 284.931 699.59 279.024C697.227 273.117 695.455 270.754 700.181 264.256C704.907 257.757 707.27 255.985 706.679 249.487C706.088 242.989 719.675 184.506 719.675 184.506C719.675 184.506 723.81 134.884 689.548 139.61Z" fill="black"/>
<path opacity="0.1" d="M683.049 138.429C683.049 138.429 659.42 147.881 659.42 167.966C659.42 188.051 660.602 214.634 656.466 223.495C652.331 232.356 648.787 235.309 651.15 242.398C653.513 249.487 657.648 248.306 651.15 253.622C644.652 258.939 645.242 250.078 644.652 258.939C644.061 267.8 650.559 268.981 644.652 273.117C638.744 277.252 623.385 293.792 629.883 299.109C636.381 304.426 653.513 321.557 659.42 315.059C665.327 308.561 668.281 292.02 676.551 293.202C684.822 294.383 686.003 294.974 684.822 289.066C683.64 283.159 678.324 283.159 685.412 281.387C692.501 279.615 695.455 283.75 693.092 277.842C690.729 271.935 688.957 269.572 693.683 263.074C698.409 256.576 700.772 254.804 700.181 248.306C699.59 241.808 713.177 183.325 713.177 183.325C713.177 183.325 717.312 133.703 683.049 138.429Z" fill="black"/>
<path d="M686.003 136.657C686.003 136.657 662.374 146.108 662.374 166.193C662.374 186.278 663.555 212.861 659.42 221.723C655.285 230.584 651.74 233.537 654.103 240.626C656.466 247.715 660.601 246.533 654.103 251.85C647.605 257.167 648.196 248.306 647.605 257.167C647.015 266.028 653.513 267.209 647.605 271.344C641.698 275.48 626.339 292.02 632.837 297.337C639.335 302.653 656.466 319.785 662.374 313.287C668.281 306.789 671.235 290.248 679.505 291.429C687.775 292.611 688.957 293.202 687.775 287.294C686.594 281.387 681.277 281.387 688.366 279.615C695.455 277.842 698.409 281.978 696.046 276.07C693.683 270.163 691.911 267.8 696.636 261.302C701.362 254.804 703.725 253.032 703.135 246.533C702.544 240.035 716.131 181.552 716.131 181.552C716.131 181.552 720.266 131.931 686.003 136.657Z" fill="#2F2E41"/>
<path d="M816 669H276" stroke="#3F3D56" stroke-width="2" stroke-miterlimit="10"/>
<path d="M406.533 669.468C389.655 669.43 373.079 664.983 358.449 656.567C343.819 648.15 331.641 636.057 323.123 621.486L322.618 620.619L405.782 572.672V476.535L406.784 476.538C432.346 476.605 456.837 486.815 474.877 504.925C492.916 523.036 503.03 547.566 502.997 573.128C502.964 598.691 492.786 623.195 474.699 641.258C456.612 659.322 432.095 669.468 406.533 669.468ZM325.362 621.345C333.792 635.501 345.778 647.206 360.13 655.298C374.481 663.391 390.7 667.589 407.175 667.476C423.651 667.364 439.81 662.944 454.05 654.657C468.29 646.369 480.114 634.502 488.35 620.232C496.586 605.962 500.947 589.787 501 573.311C501.053 556.835 496.796 540.632 488.652 526.31C480.507 511.988 468.759 500.045 454.573 491.666C440.387 483.287 424.256 478.764 407.782 478.546V573.829L407.281 574.117L325.362 621.345Z" fill="#2F2E41"/>
<path d="M406.533 609.299C426.579 609.299 442.83 593.048 442.83 573.002C442.83 552.955 426.579 536.704 406.533 536.704C386.486 536.704 370.236 552.955 370.236 573.002C370.236 593.048 386.486 609.299 406.533 609.299Z" fill="#3F4E4E"/>
<path d="M406.533 591.106C416.532 591.106 424.637 583 424.637 573.002C424.637 563.003 416.532 554.898 406.533 554.898C396.534 554.898 388.429 563.003 388.429 573.002C388.429 583 396.534 591.106 406.533 591.106Z" fill="#02FA74"/>
</g>
<defs>
<clipPath id="clip0">
<rect width="875.274" height="670" fill="white"/>
</clipPath>
</defs>
</svg>
